<?xml version="1.0" encoding="UTF-8" standalone="no"?>
<!-- Created with Inkscape (http://www.inkscape.org/) -->

<svg
   width="36.843269mm"
   height="37.711037mm"
   viewBox="0 0 36.84327 37.711037"
   version="1.1"
   id="svg5"
   xmlns:xlink="http://www.w3.org/1999/xlink"
   xmlns="http://www.w3.org/2000/svg"
   xmlns:svg="http://www.w3.org/2000/svg">
  <defs
     id="defs2">
    <linearGradient
       id="linearGradient41525">
      <stop
         style="stop-color:#000000;stop-opacity:1;"
         offset="0"
         id="stop41521" />
      <stop
         style="stop-color:#000000;stop-opacity:0;"
         offset="1"
         id="stop41523" />
    </linearGradient>
    <rect
       x="252.6665"
       y="534.55853"
       width="174.28954"
       height="133.90529"
       id="rect27931" />
    <rect
       x="497.36261"
       y="401.18454"
       width="123.2778"
       height="145.59541"
       id="rect2033" />
    <rect
       x="210.42265"
       y="314.03983"
       width="420.84515"
       height="238.05385"
       id="rect693" />
    <linearGradient
       xlink:href="#linearGradient41525"
       id="linearGradient41527"
       x1="92.108231"
       y1="43.869308"
       x2="173.48051"
       y2="43.869308"
       gradientUnits="userSpaceOnUse" />
  </defs>
  <g
     id="layer1"
     transform="translate(-0.09916861,-5.8730657)">
    <text
       xml:space="preserve"
       transform="matrix(0.26458333,0,0,0.26458333,-15.901312,33.498762)"
       id="text691"
       style="font-style:normal;font-weight:normal;font-size:40px;line-height:1.25;font-family:sans-serif;white-space:pre;shape-inside:url(#rect693);fill:#a2a2a2;fill-opacity:1;stroke:none" />
    <g
       id="g43083"
       transform="matrix(0.58923496,0,0,0.58923496,-0.97077395,49.124637)">
      <g
         id="Sun">
        <path
           d="m 33.211317,-55.123627 c -7.711901,0 -13.986301,6.274398 -13.986301,13.986297 0,7.711899 6.2744,13.986401 13.986301,13.986401 7.711901,0 13.986298,-6.274498 13.986298,-13.986401 0,-7.711902 -6.274399,-13.986297 -13.986298,-13.986297 z m 0,26 c -6.6245,0 -12.0137,-5.389702 -12.0137,-12.013703 0,-6.624 5.3892,-12.013597 12.0137,-12.013597 6.6245,0 12.013699,5.389599 12.013699,12.013597 0,6.623999 -5.389199,12.013703 -12.013699,12.013703 z"
           id="path43004"
           style="fill:#008e2e;fill-opacity:1" />
        <path
           d="m 33.079516,-60.234028 c 0.5522,0 1,-0.4472 1,-1 v -11.1689 c 0,-0.5527 -0.4478,-1 -1,-1 -0.5523,0 -1,0.4473 -1,1 v 11.1689 c 0,0.5528 0.4477,1 1,1 z"
           id="path43006"
           style="fill:#008e2e;fill-opacity:1" />
        <path
           d="m 33.079516,-22.572827 c -0.5523,0 -1,0.447201 -1,1 v 11.169899 c 0,0.5526996 0.4477,0.9999996 1,0.9999996 0.5522,0 1,-0.4473 1,-0.9999996 v -11.169899 c 0,-0.552799 -0.4478,-1 -1,-1 z"
           id="path43008"
           style="fill:#008e2e;fill-opacity:1" />
        <path
           d="M 63.343115,-42.957629 H 52.173216 c -0.5522,0 -1,0.4473 -1,1 0,0.5527 0.4478,1.000002 1,1.000002 h 11.169899 c 0.552299,0 1,-0.447302 1,-1.000002 0,-0.5527 -0.447701,-1 -1,-1 z"
           id="path43010"
           style="fill:#008e2e;fill-opacity:1" />
        <path
           d="m 14.985716,-41.957629 c 0,-0.5527 -0.447794,-1 -0.999999,-1 H 2.8158165 c -0.5523,0 -1,0.4473 -1,1 0,0.5527 0.4477,1.000002 1,1.000002 H 13.985717 c 0.552205,0 0.999999,-0.447302 0.999999,-1.000002 z"
           id="path43012"
           style="fill:#008e2e;fill-opacity:1" />
        <path
           d="m 46.259615,-53.525029 c 0.255901,0 0.5117,-0.0976 0.7071,-0.2929 l 7.898899,-7.898499 c 0.390602,-0.3906 0.390602,-1.0234 0,-1.414 -0.390598,-0.390701 -1.023498,-0.390701 -1.414097,0 l -7.898903,7.8984 c -0.390598,0.3906 -0.390598,1.0234 0,1.414099 0.195309,0.195301 0.451203,0.2929 0.707001,0.2929 z"
           id="path43014"
           style="fill:#008e2e;fill-opacity:1" />
        <path
           d="m 46.966715,-28.19983 c -0.390698,-0.390598 -1.023499,-0.390598 -1.414101,0 -0.390598,0.390702 -0.390598,1.023503 0,1.414101 l 7.898903,7.8974 c 0.195298,0.1954 0.451199,0.292999 0.7071,0.292999 0.255799,0 0.5117,-0.0976 0.706997,-0.292999 0.390602,-0.390599 0.390602,-1.0234 0,-1.413998 z"
           id="path43016"
           style="fill:#008e2e;fill-opacity:1" />
        <path
           d="m 19.192217,-53.817929 c 0.1954,0.195301 0.451199,0.2929 0.7071,0.2929 0.2558,0 0.5117,-0.0976 0.706999,-0.2929 0.390606,-0.390699 0.390606,-1.023498 0,-1.414099 l -7.8979,-7.8984 c -0.390699,-0.390701 -1.023495,-0.390701 -1.4141,0 -0.3906,0.3906 -0.3906,1.0234 0,1.414 z"
           id="path43018"
           style="fill:#008e2e;fill-opacity:1" />
        <path
           d="m 20.650717,-28.132828 c -0.0177,-0.0208 -0.0246,-0.0472 -0.0444,-0.067 -0.390601,-0.390598 -1.023394,-0.390598 -1.414099,0 l -3.940101,3.940003 -4.034195,3.8447 c -0.399905,0.381198 -0.415205,1.0139 -0.034,1.413799 0.01929,0.0203 0.04549,0.0278 0.066,0.046 0.01769,0.0209 0.02459,0.0473 0.04439,0.067 0.195301,0.1954 0.451201,0.292999 0.707,0.292999 0.255901,0 0.511701,-0.0976 0.7071,-0.292999 l 3.940101,-3.9399 4.0342,-3.8447 c 0.3999,-0.381198 0.415205,-1.0139 0.034,-1.413799 -0.0193,-0.0203 -0.0455,-0.0279 -0.066,-0.0461 z"
           id="path43020"
           style="fill:#008e2e;fill-opacity:1" />
      </g>
      <g
         id="g43023" />
      <g
         id="g43025" />
      <g
         id="g43027" />
      <g
         id="g43029" />
      <g
         id="g43031" />
      <g
         id="g43033" />
      <g
         id="g43035" />
      <g
         id="g43037" />
      <g
         id="g43039" />
      <g
         id="g43041" />
      <g
         id="g43043" />
      <g
         id="g43045" />
      <g
         id="g43047" />
      <g
         id="g43049" />
      <g
         id="g43051" />
    </g>
  </g>
</svg>
